<?xml version="1.0" encoding="UTF-8"?>
<svg version="1.1" viewBox="0 0 569 648" xmlns="http://www.w3.org/2000/svg">
  <title>Logo Vestfold og Telemark fylkeskommune</title>
  <g>
    <path id="Path"
      d="m0.78 0v359.47c0 9.48 0.47 24.17 1.38 33.42 14.16 142.93 135.13 254.6 282.25 254.6s268.08-111.67 282.24-254.6c0.92-9.25 1.39-23.94 1.39-33.42v-359.47h-567.26z"
      fill="#E40017" />
    <path id="Path"
      d="m291.97 470.11c-0.024563-0.14845 0.072596-0.28978 0.22-0.32 0.14056-0.038995 0.28668 0.040707 0.33 0.18 9 28.15 25.55 54.08 46.2 76.59 8.5-3.46 17.63-6.69 26.9-10.21-35.07-30.67-65-71.35-73.65-118.51-0.011308-0.13912 0.078086-0.26655 0.21274-0.30328 0.13466-0.036725 0.27637 0.027682 0.33726 0.15328 14.35 45 48.17 84.37 87 113.14 10.816-4.4329 21.136-9.9901 30.79-16.58-51.67-30.85-106.07-84.45-118.34-151-0.005701-0.137 0.085331-0.25927 0.21821-0.2931 0.13288-0.033824 0.27129 0.030042 0.33179 0.1531 19.61 61.58 75.63 112.48 131 140.31 8.4525-8.1673 15.333-17.817 20.3-28.47-59-24.77-136.82-86.77-151.8-168-0.024563-0.14845 0.072596-0.28978 0.22-0.32 0.14056-0.038995 0.28668 0.040707 0.33 0.18 22.76 71.45 94.54 128.55 157.37 151.87 3.78-13 5.92-28.21 5.92-46.25-75.84-23.18-163.89-112.3-163.89-202.18v-56h-15.11v56.06c0 88-94.11 180.78-163.85 202.11 0 18 2.15 33.28 5.93 46.25 62.83-23.32 134.61-80.42 157.37-151.87 0.048578-0.13678 0.19362-0.21375 0.33412-0.17733s0.22987 0.17418 0.20588 0.31733c-15 81.26-92.84 143.25-151.79 168 4.9668 10.653 11.848 20.303 20.3 28.47 55.32-27.83 111.34-78.73 131-140.31 0.047393-0.13589 0.19009-0.21373 0.33-0.18 0.070369 0.014429 0.13209 0.056304 0.1715 0.11636 0.039412 0.060056 0.053267 0.13334 0.038501 0.20364-12.26 66.53-66.66 120.13-118.33 151 9.6709 6.5861 20.008 12.137 30.84 16.56 38.78-28.77 72.6-68.1 87-113.14 0.05096-0.13282 0.19074-0.20906 0.33-0.18 0.14797 0.034768 0.24117 0.18124 0.21 0.33-8.69 47.16-38.57 87.84-73.64 118.51 9.27 3.52 18.4 6.75 26.9 10.2 20.65-22.5 37.23-48.43 46.2-76.58 0.048578-0.13678 0.19362-0.21375 0.33412-0.17733s0.22987 0.17418 0.20588 0.31733c-5.46 29.67-19.31 56.76-37.56 80.42 21.77 10.11 37.56 23.43 37.57 50.73h15.11c0-27.31 15.8-40.63 37.57-50.74-18.35-23.62-32.22-50.71-37.67-80.38z"
      fill="#FFCD00" />
    <ellipse transform="translate(465.74 171.22) rotate(-88.854) translate(-465.74 -171.22)" cx="465.74" cy="171.22"
      rx="16.493" ry="16.763" fill="#FFCD00" />
    <path id="Path"
      d="m515.09 256.61c-26 62.2-138.41 63.62-158.27-8.43 10.25 17.6 29.53 31.65 58.58 32.16 57.61 1 105.16-46.15 106.19-105.32 0-2.81 0-5.6-0.17-8.35-0.11-2.48-0.35-4.95-0.69-7.42-0.92617-7.3614-2.6015-14.609-5-21.63-6.32-21.11-15.15-42.57-12-65.61 1.4461 0.5613 2.9791 0.86587 4.53 0.9 7.2681 0.12703 13.263-5.6619 13.392-12.93 0.12497-7.2681-5.664-13.263-12.932-13.39-6.87-0.12-12.91 3.63-16.9 11.9-5.79 12-1.69 29.83 2.86 42.86-18.71-21.23-36.35-35.29-75.48-35.29-32.19 0-92.58 9.71-105.48-24.29-3.7019 6.0888-5.7335 13.046-5.89 20.17-0.84 28.68 32.47 32.76 34.2 32.41-38.61 37.18 7.76 88.4 45.37 58.45 3.3-2.63 7.25-7 8.36-11-8.5115 3.0186-17.985 1.2967-24.89-4.5239-6.9049-5.8206-10.205-14.867-8.6697-23.766 4.4-21 26.28-35.86 63.59-35.58-41.68 8.52-37.87 46.71-28.27 49.17 0 0-0.24-2.14-0.22-3.22 0.28-16.12 17.58-31.58 42.56-31.58 29.84 0 48.61 23.06 55.4 35.5-13.433-10.22-31.473-12.012-46.654-4.6349-15.181 7.3771-24.92 22.668-25.186 39.545-0.16 8.9 4.22 24.82 20.16 26.82-18.43-24.79-1.5-47.23 18.74-47.55 21.28-0.34 37.28 17.91 37.28 39.19 0 34.09-35.11 57.73-71.78 57.73-15.4 0-31.28-4.75-41.41-13.31 10.424-3.0883 17.641-12.58 17.83-23.45 0.24-13.76-10.71-25.34-24.47-25.34-30.54 0-37.69 32.22-37.69 48 0 117.73 162 131.91 152.19 181.9 7.56-4.39 9.66-15 9.08-22.48-1.94-25.53-47.41-50.36-57.16-56.94 12.11 4.26 84.83-14.31 68.9-70.67z"
      fill="#FFCD00" />
    <path id="a"
      d="m58.71 46.63c21.49-1.83 28.5 32.17-1.24 56.49-1.7791 1.5988-4.0515 2.541-6.44 2.67 4.56-3.44 14.06-21.34 11.83-33.94-8.64 1.2-13.93-3.34-15.49-9.65-1.87-7.57 3.87-14.95 11.34-15.57z"
      fill="#FFCD00" />
    <path
      d="m261.16 61.94c-0.15654-7.1241-2.1881-14.081-5.89-20.17-12.9 34-73.29 24.29-105.47 24.29-60.75 0-103.49 49.79-102.46 109s48.58 106.33 106.2 105.32c27.73-0.48 46.57-13.33 57.13-29.81-18 66-127.44 69.45-155.35 6.08-11.39 10.33-7.15 30.3 3.79 35.43-5.77 25.63 36.39 41.69 59 33.52-16 8-69.18 49.62-43.51 81.14-9.94-50.78 152.42-64.23 152.42-179.43 0-10.9-3.57-50.47-37.93-50.47-13.76 0-24.71 11.58-24.47 25.34 0.18932 10.87 7.4062 20.362 17.83 23.45-10.13 9-26 13.31-41.41 13.31-26.26 0-74.19-14.34-74.19-61.46 0-20.42 15.91-37.26 36.34-37.62 10.81-0.22651 21.174 4.303 28.35 12.39-6.4651-4.626-15.177-4.5488-21.56 0.19091-6.3822 4.7397-8.9744 13.058-6.4147 20.584 2.5597 7.5263 9.6857 12.539 17.634 12.405 16.58-0.29 18.44-18.09 18.65-17.19 2.9948-16.377-3.733-33.011-17.271-42.701s-31.453-10.695-45.989-2.579c18.47-28.48 42.81-30.54 52.54-30.71 25-0.43 42.28 15.46 42.56 31.58 0.019667 1.4407-0.11781 2.8792-0.41 4.29 11.47-6.56 10-43.1-28-50 33.72-0.82 59 13.71 63.53 35.31 0.24565 1.4303 0.36943 2.8788 0.37 4.33 0.006002 8.2638-4.0023 16.016-10.749 20.788s-15.391 5.97-23.181 3.2121c1.12 4 5.07 8.39 8.37 11 37.6 29.95 84-21.27 45.36-58.45 1.71 0.39 35.03-3.69 34.18-32.37z"
      fill="#FFCD00" />
  </g>
</svg>