<?xml version="1.0" encoding="UTF-8"?>
<svg width="24px" height="24px" viewBox="0 0 24 24" version="1.1" xmlns="http://www.w3.org/2000/svg" xmlns:xlink="http://www.w3.org/1999/xlink">
    <g id="layout-" stroke="none" stroke-width="1" fill="none" fill-rule="evenodd">
        <g id="Extra-large:-Desktops---12-col-Copy-32" transform="translate(-58.000000, -482.000000)" fill="currentColor">
            <g id="Group-7" transform="translate(49.000000, 482.000000)">
                <g id="account-box" transform="translate(9.000000, 0.000000)">
                    <path d="M0,2.66666667 L0,21.3333333 C0,22.8 1.2,24 2.66666667,24 L21.3333333,24 C22.8,24 24,22.8 24,21.3333333 L24,2.66666667 C24,1.2 22.8,0 21.3333333,0 L2.66666667,0 C1.2,0 0,1.2 0,2.66666667 L0,2.66666667 Z M16,8 C16,10.2666667 14.2666667,12 12,12 C9.73333333,12 8,10.2666667 8,8 C8,5.73333333 9.73333333,4 12,4 C14.2666667,4 16,5.73333333 16,8 L16,8 Z M4,18.6666667 C4,16 9.33333333,14.5333333 12,14.5333333 C14.6666667,14.5333333 20,16 20,18.6666667 L20,20 L4,20 L4,18.6666667 L4,18.6666667 Z" id="Shape"></path>
                </g>
            </g>
        </g>
    </g>
</svg>