<?xml version="1.0" encoding="UTF-8"?>
<svg width="24px" height="15px" viewBox="0 0 24 15" version="1.1" xmlns="http://www.w3.org/2000/svg" xmlns:xlink="http://www.w3.org/1999/xlink">
    <g id="layout-" stroke="none" stroke-width="1" fill="none" fill-rule="evenodd">
        <g id="Extra-large:-Desktops---12-col-Copy-32" transform="translate(-59.000000, -572.000000)" fill="currentColor">
            <g id="Group-4" transform="translate(46.000000, 572.000000)">
                <g id="people" transform="translate(13.000000, 0.000000)">
                    <path d="M16.3636364,6.42857143 C18.2181818,6.42857143 19.6363636,5.03571429 19.6363636,3.21428571 C19.6363636,1.39285714 18.2181818,0 16.3636364,0 C14.5090909,0 13.0909091,1.39285714 13.0909091,3.21428571 C13.0909091,5.03571429 14.5090909,6.42857143 16.3636364,6.42857143 L16.3636364,6.42857143 Z M7.63636364,6.42857143 C9.49090909,6.42857143 10.9090909,5.03571429 10.9090909,3.21428571 C10.9090909,1.39285714 9.49090909,0 7.63636364,0 C5.78181818,0 4.36363636,1.39285714 4.36363636,3.21428571 C4.36363636,5.03571429 5.78181818,6.42857143 7.63636364,6.42857143 L7.63636364,6.42857143 Z M7.63636364,8.57142857 C5.12727273,8.57142857 0,9.85714286 0,12.3214286 L0,15 L15.2727273,15 L15.2727273,12.3214286 C15.2727273,9.85714286 10.1454545,8.57142857 7.63636364,8.57142857 L7.63636364,8.57142857 Z M16.3636364,8.57142857 C16.0363636,8.57142857 15.7090909,8.57142857 15.2727273,8.67857143 C16.5818182,9.53571429 17.4545455,10.8214286 17.4545455,12.3214286 L17.4545455,15 L24,15 L24,12.3214286 C24,9.85714286 18.8727273,8.57142857 16.3636364,8.57142857 L16.3636364,8.57142857 Z" id="Shape"></path>
                </g>
            </g>
        </g>
    </g>
</svg>