<?xml version="1.0" encoding="UTF-8"?>
<svg width="24px" height="24px" viewBox="0 0 24 24" version="1.1" xmlns="http://www.w3.org/2000/svg" xmlns:xlink="http://www.w3.org/1999/xlink">
    <g id="layout-" stroke="none" stroke-width="1" fill="none" fill-rule="evenodd">
        <g id="Extra-large:-Desktops---12-col-Copy-32" transform="translate(-58.000000, -655.000000)" fill="currentColor">
            <g id="Group-5" transform="translate(36.000000, 655.000000)">
                <g id="poll" transform="translate(22.000000, 0.000000)">
                    <path d="M21.3333333,0 L2.66666667,0 C1.2,0 0,1.2 0,2.66666667 L0,21.3333333 C0,22.8 1.2,24 2.66666667,24 L21.3333333,24 C22.8,24 24,22.8 24,21.3333333 L24,2.66666667 C24,1.2 22.8,0 21.3333333,0 L21.3333333,0 Z M8,18.6666667 L5.33333333,18.6666667 L5.33333333,9.33333333 L8,9.33333333 L8,18.6666667 L8,18.6666667 Z M13.3333333,18.6666667 L10.6666667,18.6666667 L10.6666667,5.33333333 L13.3333333,5.33333333 L13.3333333,18.6666667 L13.3333333,18.6666667 Z M18.6666667,18.6666667 L16,18.6666667 L16,13.3333333 L18.6666667,13.3333333 L18.6666667,18.6666667 L18.6666667,18.6666667 Z" id="Shape"></path>
                </g>
            </g>
        </g>
    </g>
</svg>