<?xml version="1.0" encoding="UTF-8"?>
<svg width="24px" height="24px" viewBox="0 0 24 24" version="1.1" xmlns="http://www.w3.org/2000/svg" xmlns:xlink="http://www.w3.org/1999/xlink">
    <!-- Generator: Sketch 59.1 (86144) - https://sketch.com -->
    <title>drive-form</title>
    <desc>Created with Sketch.</desc>
    <g id="layout-" stroke="none" stroke-width="1" fill="none" fill-rule="evenodd">
        <g id="Extra-large:-Desktops---12-col-Copy-32" transform="translate(-59.000000, -391.000000)" fill="#000000">
            <g id="Group-3" transform="translate(41.000000, 391.000000)">
                <g id="drive-form" transform="translate(18.000000, 0.000000)">
                    <path d="M21.3333333,0 L2.66666667,0 C1.2,0 0,1.2 0,2.66666667 L0,21.3333333 C0,22.8 1.2,24 2.66666667,24 L21.3333333,24 C22.8,24 24,22.8 24,21.3333333 L24,2.66666667 C24,1.2 22.8,0 21.3333333,0 L21.3333333,0 Z M8,18.6666667 L5.33333333,18.6666667 L5.33333333,16 L8,16 L8,18.6666667 L8,18.6666667 Z M8,13.3333333 L5.33333333,13.3333333 L5.33333333,10.6666667 L8,10.6666667 L8,13.3333333 L8,13.3333333 Z M8,8 L5.33333333,8 L5.33333333,5.33333333 L8,5.33333333 L8,8 L8,8 Z M18.6666667,18.6666667 L9.33333333,18.6666667 L9.33333333,16 L18.6666667,16 L18.6666667,18.6666667 L18.6666667,18.6666667 Z M18.6666667,13.3333333 L9.33333333,13.3333333 L9.33333333,10.6666667 L18.6666667,10.6666667 L18.6666667,13.3333333 L18.6666667,13.3333333 Z M18.6666667,8 L9.33333333,8 L9.33333333,5.33333333 L18.6666667,5.33333333 L18.6666667,8 L18.6666667,8 Z" id="Shape"></path>
                </g>
            </g>
        </g>
    </g>
</svg>